<svg width="51" height="54" viewBox="0 0 51 54" fill="none" xmlns="http://www.w3.org/2000/svg">
    <path fill-rule="evenodd" clip-rule="evenodd" d="M28.035 26.963c.002-1.111-.415-2.008-1.262-2.72-2.314-1.939-4.623-3.882-6.93-5.826a3.264 3.264 0 0 0-2.153-.792c-3.342-.029-6.684-.069-10.026-.096-1.954-.015-3.34 1.373-3.341 3.34-.006 4.099-.002 8.198-.002 12.297 0 4.1-.002 8.2.002 12.297.001 1.497.836 2.704 2.202 3.142.37.12.777.163 1.169.164 5.657.01 11.315.01 16.974.005 2.021-.004 3.362-1.36 3.363-3.377.002-6.143-.004-12.286.003-18.43l.001-.004z" fill="url(#vthuhzgjia)"/>
    <path fill-rule="evenodd" clip-rule="evenodd" d="M19.327 44.19h-1.544v-1.585h2.435v.694c0 .491-.4.891-.89.891h-.001zm-7.188-.89v-.695h2.412v1.585h-1.522c-.49 0-.89-.4-.89-.89zm.89-5.606h1.522v1.546h-2.412v-.654c0-.491.4-.891.89-.891v-.001zm4.754 4.405h2.435v-2.353h-2.435V42.1zm-2.727 2.091h2.22v-6.496h-2.22v6.496zM12.14 42.1h2.412v-2.353h-2.412V42.1zm8.08-3.514v.654h-2.436v-1.547h1.544c.49 0 .89.4.89.891l.001.002zm-.891-1.399H13.03c-.77 0-1.397.626-1.397 1.399v4.714c0 .771.625 1.397 1.397 1.397h6.298c.77 0 1.397-.626 1.397-1.397v-4.714c0-.773-.625-1.399-1.397-1.399z" fill="url(#m9ocavxbgb)"/>
    <path fill-rule="evenodd" clip-rule="evenodd" d="M45 14.835c.002-1.112-.415-2.009-1.262-2.72-2.314-1.94-4.622-3.883-6.93-5.827a3.264 3.264 0 0 0-2.152-.792c-3.343-.029-6.684-.069-10.026-.096-1.954-.015-3.34 1.373-3.342 3.34-.005 4.099-.002 8.198-.002 12.298 0 4.099-.003 8.198.002 12.296.002 1.497.837 2.704 2.203 3.142.37.12.777.163 1.168.164 5.658.01 11.316.01 16.975.005 2.02-.004 3.361-1.359 3.363-3.376.001-6.144-.004-12.287.002-18.432l.002-.002z" fill="url(#51k0gkh2tc)"/>
    <path fill-rule="evenodd" clip-rule="evenodd" d="M36.292 32.06h-1.544v-1.585h2.435v.694c0 .491-.399.891-.89.891h-.001zm-7.188-.89v-.695h2.412v1.585h-1.522c-.49 0-.89-.4-.89-.89zm.89-5.606h1.522v1.546h-2.412v-.654c0-.491.4-.89.89-.89v-.002zm4.754 4.405h2.435v-2.353h-2.435v2.353zm-2.726 2.091h2.22v-6.496h-2.22v6.496zm-2.918-2.091h2.412v-2.353h-2.412v2.353zm8.08-3.514v.654h-2.436v-1.547h1.544c.49 0 .89.4.89.891l.001.002zm-.89-1.399h-6.299c-.77 0-1.397.626-1.397 1.399v4.714c0 .771.626 1.397 1.397 1.397h6.298c.77 0 1.397-.626 1.397-1.397v-4.714c0-.773-.625-1.399-1.397-1.399z" fill="url(#w7aa13h40d)"/>
    <path fill-rule="evenodd" clip-rule="evenodd" d="m31.705 18.422.37-1.492c.306-1.24.612-2.483.915-3.725.039-.162.098-.232.282-.226.545.014 1.09.01 1.635.002.18-.002.206.049.163.218-.45 1.801-.893 3.602-1.331 5.405-.04.163-.109.209-.272.207a303.93 303.93 0 0 0-3.521 0c-.161 0-.234-.04-.273-.201a900.688 900.688 0 0 0-1.331-5.405c-.046-.18-.023-.23.17-.225.536.012 1.074.012 1.609 0 .184-.004.255.05.3.235.415 1.714.841 3.424 1.284 5.209v-.002zM37.872 15.899c0 .898-.006 1.794.004 2.692.003.18-.053.223-.225.22a50.835 50.835 0 0 0-1.633 0c-.151.002-.22-.023-.22-.201.007-1.812.007-3.622 0-5.434 0-.159.05-.197.2-.195.562.008 1.123.01 1.684 0 .163-.002.194.055.192.203-.006.906-.002 1.812-.002 2.718v-.003z" fill="#FDFDFD"/>
    <path fill-rule="evenodd" clip-rule="evenodd" d="M37.965 20.626c-.002.612-.52 1.136-1.118 1.129-.607-.007-1.128-.52-1.133-1.121a1.147 1.147 0 0 1 1.139-1.137 1.132 1.132 0 0 1 1.113 1.127l-.001.002z" fill="#FCC402"/>
    <defs>
        <linearGradient id="vthuhzgjia" x1="5.721" y1="18.07" x2="24.024" y2="49.74" gradientUnits="userSpaceOnUse">
            <stop stop-color="#2A3B63"/>
            <stop offset="1" stop-color="#161F33"/>
        </linearGradient>
        <linearGradient id="m9ocavxbgb" x1="13.673" y1="36.598" x2="18.69" y2="45.28" gradientUnits="userSpaceOnUse">
            <stop stop-color="#F4F8FE"/>
            <stop offset="1" stop-color="#D5E5F9"/>
        </linearGradient>
        <linearGradient id="51k0gkh2tc" x1="22.687" y1="5.941" x2="40.988" y2="37.61" gradientUnits="userSpaceOnUse">
            <stop stop-color="#F1525F"/>
            <stop offset="1" stop-color="#EE2737"/>
        </linearGradient>
        <linearGradient id="w7aa13h40d" x1="29.404" y1="25.07" x2="36.889" y2="32.548" gradientUnits="userSpaceOnUse">
            <stop stop-color="#FFD133"/>
            <stop offset="1" stop-color="#FFA800"/>
        </linearGradient>
    </defs>
</svg>
