<svg width="50" height="50" viewBox="0 0 50 50" fill="none" xmlns="http://www.w3.org/2000/svg">
    <path d="M38.998 18.09a3.949 3.949 0 0 0-1.492-3.198c-2.729-2.28-5.455-4.565-8.18-6.854a3.89 3.89 0 0 0-2.542-.927c-3.946-.034-7.89-.08-11.838-.11-2.306-.018-3.943 1.612-3.946 3.928v28.915c0 1.76.988 3.18 2.599 3.704.447.139.913.209 1.381.208 6.681.013 13.363.013 20.045 0 2.381 0 3.966-1.599 3.97-3.973.005-7.236.007-14.467.003-21.693z" fill="url(#4ooqd1f73a)"/>
    <path d="M20.288 27.633h9.727c0 4.649-4.208 4.918-4.863 4.918-.655 0-4.82-.487-4.864-4.918z" fill="url(#64kvp3lm1b)"/>
    <path d="M28.11 31.66a5.71 5.71 0 0 1-2.959.889 5.795 5.795 0 0 1-2.864-.927 8.164 8.164 0 0 1 5.824.037z" fill="#D83836"/>
    <path d="M28.11 31.66a5.71 5.71 0 0 1-2.959.889 5.795 5.795 0 0 1-2.864-.927 8.164 8.164 0 0 1 5.824.037z" fill="url(#jbu2mi8wxc)"/>
    <path d="M20.442 24.55c.683 0 1.235-.842 1.235-1.88 0-1.038-.552-1.88-1.235-1.88-.681 0-1.234.842-1.234 1.88 0 1.038.553 1.88 1.235 1.88zM29.553 24.55c.681 0 1.234-.842 1.234-1.88 0-1.038-.552-1.88-1.234-1.88-.682 0-1.235.842-1.235 1.88 0 1.038.553 1.88 1.235 1.88z" fill="#292B3A"/>
    <path opacity=".3" d="M35.784 26.329c-.287.17-7.245.583-9.26.323l-1.433-1.946-1.447 1.971c-2.023.27-8.98-.148-9.262-.323 0 0-.925-5.5-.05-7.994.85-.148 8.334-.352 10.664-.36v-.028c2.04 0 9.989.203 10.885.36.87 2.493-.097 7.997-.097 7.997z" fill="#282B3C"/>
    <g opacity=".3">
        <mask id="axas30s2nd" style="mask-type:alpha" maskUnits="userSpaceOnUse" x="13" y="17" width="24" height="10">
            <path opacity=".7" d="M35.786 26.329c-.288.17-7.246.584-9.262.323l-1.432-1.946-1.447 1.972c-2.023.268-8.98-.148-9.261-.323 0 0-.926-5.501-.052-7.995.85-.148 8.335-.352 10.665-.36v-.027c2.041 0 9.99.202 10.886.36.869 2.492-.097 7.996-.097 7.996z" fill="#282B3C"/>
        </mask>
        <g mask="url(#axas30s2nd)" fill="#F8F8F8">
            <path opacity=".8" d="M27.438 15.493 16.913 30.428l-.871-.612 10.523-14.934.872.61zM20.332 17.64l-8.879 12.6-3.667-2.57 8.879-12.6 3.667 2.57z"/>
        </g>
    </g>
    <defs>
        <linearGradient id="4ooqd1f73a" x1="25" y1="7" x2="25" y2="43.765" gradientUnits="userSpaceOnUse">
            <stop stop-color="#FFD133"/>
            <stop offset="1" stop-color="#FFA800"/>
        </linearGradient>
        <linearGradient id="64kvp3lm1b" x1="24.417" y1="19.321" x2="25.583" y2="31.571" gradientUnits="userSpaceOnUse">
            <stop stop-color="#2A3B63"/>
            <stop offset="1" stop-color="#161F33"/>
        </linearGradient>
        <linearGradient id="jbu2mi8wxc" x1="25.788" y1="31.08" x2="25.762" y2="32.55" gradientUnits="userSpaceOnUse">
            <stop offset=".01" stop-color="#F1525F"/>
            <stop offset="1" stop-color="#EE2737"/>
        </linearGradient>
    </defs>
</svg>
