<svg width="54" height="54" viewBox="0 0 54 54" fill="none" xmlns="http://www.w3.org/2000/svg">
<rect x="1" y="1" width="52" height="52" rx="6" fill="white"/>
<g clip-path="url(#clip0_4681_726)">
<path d="M43.6495 29.8144C43.6495 29.2965 43.9952 28.8805 44.4436 28.8805C45.0095 28.8805 45.3083 29.4377 45.3083 30.2069C45.3083 30.9838 45.0017 31.5567 44.42 31.5567C44.0347 31.5567 43.6495 31.2507 43.6495 30.6306V29.8144ZM43.4685 28.0486H42.4701C42.4859 28.441 42.5015 28.9041 42.5015 29.4613V34.0917H43.6495V31.9413H43.665C43.8538 32.2317 44.2154 32.4436 44.6871 32.4436C45.5677 32.4436 46.4641 31.7451 46.4641 30.1598C46.4641 28.8334 45.7642 27.9544 44.8208 27.9544C44.2626 27.9544 43.8224 28.1977 43.5394 28.6372H43.5235L43.4685 28.0486ZM40.3159 32.3573H41.4638V28.0408H40.3159V32.3573ZM41.503 26.8635C41.503 26.5104 41.2515 26.2514 40.8821 26.2514C40.5282 26.2514 40.2689 26.5104 40.2689 26.8635C40.2689 27.2088 40.5204 27.4757 40.8821 27.4757C41.2437 27.4835 41.503 27.2403 41.503 26.8635ZM38.319 28.7942L38.272 28.0408H37.2891C37.305 28.4253 37.3206 28.857 37.3206 29.3907V32.3573H38.4685V30.1284C38.4685 29.3907 38.8616 29.0453 39.3805 29.0453C39.4984 29.0453 39.5926 29.0532 39.6791 29.0689V27.978C39.6007 27.9623 39.5298 27.9544 39.4197 27.9544C39.0189 27.9544 38.5472 28.2448 38.3507 28.802H38.319V28.7942ZM32.6194 26.4005V27.3894H34.0895V32.3573H35.2372V27.3894H36.7151V26.4005H32.6194ZM30.7481 30.301C30.6853 30.5679 30.6144 30.8739 30.5672 31.1094H30.5438C30.4888 30.8661 30.4101 30.5679 30.3393 30.301L29.7025 28.0486H28.4446L29.8991 32.0119C29.9305 32.0982 29.9462 32.161 29.9462 32.2081C29.9462 32.2945 29.7497 32.7339 29.3723 33.0086C29.1679 33.1499 28.9556 33.2755 28.7669 33.3226L29.0578 34.2879C29.3173 34.2408 29.7575 34.0838 30.1742 33.6836C30.6617 33.197 31.0311 32.4357 31.5106 31.0387L32.4857 28.0408H31.2907L30.7481 30.301ZM26.204 26.4005L25.5279 28.6372C25.3234 29.3514 25.1505 30.0734 25.009 30.7405H24.9854C24.8517 30.0577 24.6788 29.3592 24.4901 28.6372L23.8454 26.4005H22.4224L22.0215 32.3573H23.0671L23.185 30.0656C23.2243 29.3279 23.2636 28.4489 23.2794 27.6954H23.3029C23.4445 28.4253 23.6332 29.2337 23.8218 29.9008L24.4822 32.2709H25.3549L26.0861 29.8615C26.2904 29.1944 26.5027 28.4018 26.6757 27.6954H26.6993C26.6914 28.2997 26.7307 29.2572 26.7622 30.042L26.8722 32.3573H27.965L27.627 26.4005H26.204ZM18.7116 29.7517C18.7431 29.3279 18.9789 28.755 19.5293 28.755C20.0953 28.755 20.2761 29.3043 20.2683 29.7517H18.7116ZM21.2903 30.5443C21.3139 30.4187 21.3218 30.2539 21.3218 30.0891C21.3218 28.6922 20.6378 27.9544 19.5922 27.9544C18.3264 27.9544 17.611 29.0218 17.611 30.2618C17.611 31.6038 18.3736 32.4436 19.7101 32.4436C20.2447 32.4436 20.7479 32.3494 21.1095 32.1924L20.9444 31.3998C20.6457 31.5018 20.3154 31.5803 19.8909 31.5803C19.2698 31.5803 18.7431 31.282 18.7116 30.5522H21.2903V30.5443ZM14.1439 32.1532C14.4348 32.3258 14.8908 32.4436 15.3625 32.4436C16.4396 32.4436 17.0606 31.9021 17.0606 31.078C17.0606 30.4815 16.7226 30.0656 15.9914 29.7595C15.4961 29.5476 15.331 29.4299 15.331 29.1866C15.331 28.9511 15.5197 28.7785 15.8656 28.7785C16.188 28.7785 16.4946 28.9041 16.6833 29.0061L16.9034 28.1977C16.6518 28.0643 16.2745 27.9544 15.8342 27.9544C14.8751 27.9544 14.254 28.543 14.254 29.32C14.254 29.7909 14.5527 30.2461 15.3546 30.5757C15.8263 30.7798 15.9757 30.9132 15.9757 31.18C15.9757 31.4468 15.7792 31.6117 15.3782 31.6117C15.0244 31.6117 14.592 31.4547 14.3719 31.3213L14.1439 32.1532ZM12.2649 30.8818C12.2649 31.4312 11.8168 31.6274 11.5416 31.6274C11.2507 31.6274 10.9992 31.4469 10.9992 31.0387C10.9992 30.4109 11.6438 30.2618 12.2649 30.2618V30.8818ZM10.3938 29.0689C10.6768 28.8962 11.0621 28.7706 11.4551 28.7706C12.0841 28.7706 12.2335 29.0924 12.2335 29.5241C10.8577 29.5241 9.87492 30.042 9.87492 31.1486C9.87492 31.8471 10.3702 32.4436 11.1721 32.4436C11.6517 32.4436 12.0762 32.2474 12.32 31.9099H12.3435L12.4143 32.3573H13.4442C13.397 32.0904 13.3813 31.7137 13.3813 31.337V29.7595C13.3813 28.8177 13.0197 27.9623 11.6753 27.9623C10.9992 27.9623 10.4646 28.1585 10.1737 28.3233L10.3938 29.0689ZM7.14684 31.3998V29.7438H9.0966V28.8099H7.14684V27.3658H9.21451V26.4083H5.99902V32.3651H9.33245V31.4076H7.14684V31.3998Z" fill="#005999"/>
<path fill-rule="evenodd" clip-rule="evenodd" d="M13.4199 28.6057C16.5804 22.233 25.2127 27.1067 30.0006 22.853C25.2284 27.8288 15.7863 23.63 13.4199 28.6057Z" fill="#00699E"/>
<path fill-rule="evenodd" clip-rule="evenodd" d="M24.584 19.0153L35.7872 19.9414C36.3295 19.9728 36.2431 20.0827 35.9757 20.3338L30.5118 25.6784C30.2052 26.0159 30.1343 25.9217 29.7728 25.5214L27.6344 23.1042C27.3513 22.806 27.3042 22.7432 27.7916 22.5705L33.1063 20.8596L27.1234 21.927C26.6752 22.0211 26.7303 22.0839 26.4158 21.6366L24.4267 19.3606C24.1752 19.086 24.1988 18.9525 24.584 19.0153Z" fill="#00A3D6"/>
<path fill-rule="evenodd" clip-rule="evenodd" d="M27.8078 22.9708L28.3895 23.5908C28.6725 23.8969 28.5939 23.9047 28.2716 24.101L26.4241 24.9643C26.2039 25.0977 26.0624 24.9878 26.2196 24.7367L27.3911 22.8609C27.5011 22.6255 27.6269 22.7511 27.8078 22.9708Z" fill="#00699E"/>
<path d="M46.7613 34.0352C46.7774 34.0352 46.7855 34.0312 46.7977 34.0232C46.8097 34.0152 46.8178 34.0072 46.8258 33.9911C46.8378 33.9711 46.8539 33.943 46.8739 33.8989C46.8981 33.8588 46.9223 33.8107 46.9542 33.7585C46.9865 33.7064 47.0184 33.6543 47.0507 33.6021C47.0829 33.55 47.1191 33.4979 47.151 33.4538C47.1833 33.4096 47.2113 33.3735 47.2394 33.3455C47.2678 33.3174 47.2878 33.3013 47.3078 33.3013C47.3197 33.3013 47.3278 33.3053 47.332 33.3134C47.3359 33.3214 47.34 33.3334 47.3439 33.3455C47.3481 33.3575 47.3481 33.3695 47.3481 33.3816V33.4096C47.3481 33.4778 47.3439 33.546 47.3359 33.6142C47.3278 33.6823 47.3239 33.7505 47.3239 33.8187C47.3239 33.8468 47.3239 33.8788 47.3278 33.9149C47.332 33.951 47.3359 33.9831 47.3481 34.0152C47.3601 34.0473 47.3762 34.0754 47.3962 34.0954C47.4162 34.1155 47.4484 34.1275 47.4846 34.1275C47.5249 34.1275 47.5688 34.1155 47.6172 34.0874C47.6653 34.0593 47.7095 34.0272 47.7536 33.9911C47.7978 33.955 47.842 33.9149 47.8782 33.8708C47.9185 33.8307 47.9466 33.7906 47.9707 33.7625C47.9746 33.7545 47.9788 33.7505 47.9869 33.7385C47.9907 33.7305 47.9949 33.7224 47.9949 33.7144C47.9949 33.7024 47.9907 33.6904 47.9869 33.6823C47.9827 33.6703 47.9746 33.6663 47.9585 33.6663C47.9427 33.6663 47.9304 33.6743 47.9185 33.6863C47.9065 33.7024 47.8943 33.7144 47.8862 33.7265C47.8701 33.7465 47.8501 33.7706 47.822 33.8026C47.794 33.8347 47.7617 33.8628 47.7297 33.8949C47.6975 33.9229 47.6614 33.951 47.6291 33.9711C47.5972 33.9911 47.5649 34.0032 47.5407 34.0032C47.5249 34.0032 47.5127 33.9992 47.5007 33.9871C47.4926 33.9751 47.4846 33.9631 47.4807 33.951C47.4765 33.935 47.4765 33.9229 47.4765 33.9069V33.8668C47.4765 33.7786 47.4807 33.6904 47.4926 33.6061C47.5046 33.5219 47.5088 33.4337 47.5088 33.3455C47.5088 33.3254 47.5046 33.3013 47.5007 33.2813C47.4965 33.2572 47.4885 33.2372 47.4765 33.2212C47.4646 33.2011 47.4484 33.185 47.4323 33.173C47.4123 33.161 47.3923 33.153 47.3681 33.153C47.332 33.153 47.2997 33.165 47.2636 33.189C47.2275 33.2131 47.2033 33.2372 47.1794 33.2612C47.151 33.2933 47.123 33.3254 47.0988 33.3615C47.0749 33.3976 47.0507 33.4337 47.0265 33.4658C46.9945 33.5099 46.9623 33.554 46.93 33.5981C46.8981 33.6422 46.87 33.6863 46.8417 33.7345C46.8378 33.7385 46.8339 33.7465 46.8258 33.7585C46.8178 33.7706 46.8136 33.7786 46.8097 33.7786C46.8055 33.7786 46.8016 33.7706 46.7977 33.7585C46.7936 33.7465 46.7936 33.7305 46.7936 33.7104C46.7936 33.6944 46.7897 33.6743 46.7897 33.6583V33.6182C46.7897 33.5741 46.7897 33.5299 46.7936 33.4818C46.7936 33.4377 46.7977 33.3936 46.7977 33.3495C46.7977 33.3334 46.7977 33.3134 46.7936 33.2933C46.7897 33.2733 46.7855 33.2492 46.7816 33.2292C46.7736 33.2091 46.7655 33.1931 46.7535 33.177C46.7413 33.165 46.7252 33.157 46.7013 33.157C46.669 33.157 46.6368 33.173 46.6007 33.2051C46.5645 33.2372 46.5284 33.2773 46.4923 33.3174C46.4561 33.3615 46.4239 33.4056 46.3958 33.4497C46.3677 33.4938 46.3435 33.5299 46.3277 33.554C46.3355 33.5099 46.3435 33.4658 46.3558 33.4216C46.3677 33.3775 46.3797 33.3334 46.3958 33.2933C46.4039 33.2773 46.408 33.2612 46.42 33.2372C46.428 33.2171 46.44 33.1931 46.4481 33.173C46.4561 33.149 46.4642 33.1289 46.4722 33.1089C46.4803 33.0888 46.4803 33.0687 46.4803 33.0527C46.4803 33.0367 46.4761 33.0206 46.4681 33.0126C46.46 33.0006 46.4481 32.9966 46.4319 32.9966C46.4 32.9966 46.3677 33.0046 46.3316 33.0206C46.2955 33.0367 46.2674 33.0607 46.2513 33.0888C46.2432 33.1089 46.2313 33.1409 46.219 33.185C46.2071 33.2332 46.1909 33.2853 46.179 33.3455C46.1668 33.4056 46.1509 33.4698 46.1387 33.538C46.1226 33.6061 46.1106 33.6703 46.1026 33.7305C46.0906 33.7906 46.0825 33.8468 46.0745 33.8989C46.0664 33.951 46.0625 33.9871 46.0625 34.0112C46.0625 34.0232 46.0664 34.0352 46.0745 34.0473C46.0825 34.0593 46.0945 34.0633 46.1106 34.0633C46.1306 34.0633 46.1509 34.0553 46.1629 34.0392C46.1748 34.0232 46.1871 34.0072 46.1951 33.9911C46.2029 33.9711 46.219 33.943 46.2393 33.9029C46.2593 33.8628 46.2874 33.8147 46.3155 33.7665C46.3435 33.7144 46.3758 33.6623 46.4119 33.6102C46.4481 33.558 46.4803 33.5059 46.5123 33.4618C46.5445 33.4176 46.5726 33.3816 46.6007 33.3535C46.6287 33.3254 46.649 33.3094 46.6651 33.3094C46.6771 33.3094 46.6852 33.3174 46.6852 33.3294C46.6852 33.3415 46.6891 33.3535 46.6891 33.3575V33.4216V33.5299C46.6891 33.57 46.6891 33.6102 46.6932 33.6543C46.6932 33.6984 46.6971 33.7425 46.7013 33.7866C46.7052 33.8307 46.7093 33.8708 46.7132 33.9069C46.7171 33.943 46.7252 33.9751 46.7374 33.9992C46.7332 34.0232 46.7455 34.0352 46.7613 34.0352ZM45.6928 33.3214C45.7329 33.3214 45.7651 33.3415 45.7812 33.3775C45.8012 33.4176 45.8093 33.4618 45.8135 33.5179C45.8135 33.5901 45.8054 33.6543 45.7893 33.7104C45.7732 33.7665 45.749 33.8147 45.7251 33.8548C45.6967 33.8949 45.6687 33.9229 45.6367 33.947C45.6044 33.9671 45.5764 33.9791 45.5441 33.9791C45.5122 33.9791 45.4838 33.9631 45.4599 33.931C45.4357 33.8989 45.4277 33.8508 45.4277 33.7826C45.4277 33.7345 45.4357 33.6823 45.4477 33.6302C45.4638 33.5781 45.4838 33.5259 45.5041 33.4818C45.528 33.4377 45.5564 33.3976 45.5883 33.3695C45.6206 33.3375 45.6567 33.3214 45.6928 33.3214ZM45.2589 33.7826C45.2589 33.8869 45.2831 33.9671 45.3231 34.0152C45.3673 34.0633 45.4196 34.0914 45.4799 34.0914C45.528 34.0914 45.5764 34.0794 45.6286 34.0513C45.6809 34.0232 45.7251 33.9831 45.7693 33.931C45.8093 33.8788 45.8454 33.8147 45.8735 33.7385C45.9016 33.6623 45.9138 33.5741 45.9138 33.4738C45.9138 33.4337 45.9096 33.3936 45.8977 33.3535C45.8896 33.3174 45.8735 33.2853 45.8577 33.2572C45.8416 33.2292 45.8174 33.2091 45.7893 33.1931C45.7612 33.177 45.729 33.169 45.6928 33.169C45.6286 33.169 45.5722 33.189 45.5161 33.2252C45.4638 33.2653 45.4157 33.3134 45.3796 33.3735C45.3434 33.4337 45.3112 33.5019 45.2912 33.57C45.2709 33.6462 45.2589 33.7144 45.2589 33.7826ZM44.6925 34.0994C44.7608 34.0994 44.825 34.0874 44.8893 34.0633C44.9537 34.0392 45.0138 34.0112 45.066 33.9711C45.1225 33.931 45.1706 33.8869 45.2147 33.8347C45.2589 33.7826 45.2992 33.7305 45.3273 33.6743C45.3312 33.6663 45.3354 33.6583 45.3393 33.6462C45.3434 33.6342 45.3473 33.6262 45.3473 33.6182C45.3473 33.5941 45.3354 33.5821 45.3112 33.5821C45.2951 33.5821 45.2831 33.5901 45.2709 33.6021C45.2589 33.6182 45.2509 33.6302 45.2428 33.6422C45.2186 33.6823 45.1906 33.7224 45.1586 33.7625C45.1264 33.8026 45.0863 33.8347 45.0499 33.8668C45.0099 33.8989 44.9657 33.9229 44.9215 33.943C44.8773 33.9631 44.825 33.9711 44.777 33.9711C44.7286 33.9711 44.6886 33.9551 44.6563 33.9229C44.6321 33.8989 44.6163 33.8708 44.6082 33.8387C44.596 33.8066 44.5921 33.7706 44.5921 33.7305C44.5921 33.6903 44.596 33.6462 44.6041 33.6021C44.6121 33.558 44.6241 33.5139 44.6402 33.4738C44.6563 33.4337 44.6724 33.3936 44.6925 33.3615C44.7125 33.3294 44.7328 33.3013 44.7486 33.2813C44.7647 33.2653 44.785 33.2492 44.8009 33.2412C44.8212 33.2292 44.8412 33.2252 44.8612 33.2252C44.8893 33.2252 44.9054 33.2332 44.9095 33.2532C44.9134 33.2733 44.9173 33.2933 44.9173 33.3134C44.9173 33.3495 44.9095 33.3816 44.8973 33.4056C44.8812 33.4297 44.8773 33.4537 44.8773 33.4698C44.8773 33.4858 44.8854 33.4938 44.9015 33.4938C44.9215 33.4938 44.9415 33.4858 44.9615 33.4698C44.9818 33.4497 44.9979 33.4216 45.0057 33.3856C45.0138 33.3495 45.0179 33.3214 45.0179 33.2933C45.0179 33.2292 45.0018 33.185 44.9657 33.157C44.9334 33.1289 44.8854 33.1169 44.8292 33.1169C44.7808 33.1169 44.7328 33.1289 44.6925 33.1449C44.6524 33.165 44.6121 33.1931 44.5799 33.2252C44.5518 33.2532 44.5279 33.2813 44.5076 33.3174C44.4837 33.3535 44.4676 33.3936 44.4515 33.4337C44.4353 33.4738 44.4234 33.5179 44.4112 33.562C44.4034 33.6061 44.3992 33.6502 44.3992 33.6984C44.3992 33.7585 44.4073 33.8187 44.4273 33.8748C44.4434 33.931 44.4756 33.9791 44.5157 34.0192C44.5357 34.0392 44.564 34.0593 44.5921 34.0714C44.6163 34.0914 44.6524 34.0994 44.6925 34.0994ZM44.1802 34.0914C44.2163 34.0914 44.2405 34.0794 44.2524 34.0553C44.2647 34.0312 44.2686 34.0032 44.2686 33.9711C44.2686 33.943 44.2566 33.9229 44.2363 33.9069C44.2163 33.8909 44.1921 33.8788 44.1682 33.8788C44.136 33.8788 44.116 33.8909 44.1037 33.9189C44.0918 33.947 44.0879 33.9711 44.0879 33.9992C44.0879 34.0272 44.096 34.0473 44.116 34.0673C44.1279 34.0834 44.1521 34.0914 44.1802 34.0914Z" fill="#383330"/>
</g>
<rect x="1" y="1" width="52" height="52" rx="6" stroke="#EAEAEC"/>
<defs>
<clipPath id="clip0_4681_726">
<rect width="42" height="15.2879" fill="white" transform="translate(6 19)"/>
</clipPath>
</defs>
</svg>
