<svg width="54" height="54" viewBox="0 0 54 54" fill="none" xmlns="http://www.w3.org/2000/svg">
<rect x="1" y="1" width="52" height="52" rx="6" fill="white"/>
<g clip-path="url(#clip0_4682_4328)">
<path d="M13.6938 21.0528C9.9978 21.0528 7 24.0528 7 27.7515C7 31.4503 9.9978 34.4501 13.6938 34.4501C17.3898 34.4501 20.3874 31.4505 20.3874 27.7517C20.3874 24.053 17.3898 21.053 13.6938 21.053V21.0528ZM13.6688 23.1544C16.2072 23.1544 18.2624 25.2113 18.2624 27.7515C18.2624 30.2918 16.2072 32.3485 13.6688 32.3485C11.1304 32.3485 9.0688 30.2918 9.0688 27.7515C9.0688 25.2113 11.1304 23.1544 13.6688 23.1544Z" fill="#FEB511"/>
<path d="M22.3749 24.4977V30.3332H23.5375V26.2864L25.5999 30.3332H26.8561V24.4977H25.6939V28.1378L23.7875 24.4979H22.6249L22.3749 24.4977ZM29.5125 25.9425C29.2202 25.9421 28.9306 25.9994 28.6605 26.1112C28.3903 26.2229 28.1449 26.3869 27.9382 26.5938C27.7315 26.8006 27.5676 27.0462 27.4559 27.3166C27.3442 27.5869 27.2869 27.8767 27.2873 28.1692C27.2873 29.4011 28.2813 30.402 29.5125 30.402C30.7437 30.402 31.7437 29.4011 31.7437 28.169C31.7437 26.9371 30.7435 25.9425 29.5125 25.9425ZM29.5185 27.0245C30.1485 27.0245 30.6561 27.5389 30.6561 28.169C30.6561 28.7995 30.1483 29.3074 29.5187 29.3074C28.8891 29.3074 28.3749 28.7992 28.3749 28.169C28.3756 27.8656 28.4963 27.5749 28.7107 27.3604C28.925 27.1459 29.2154 27.0252 29.5185 27.0245ZM32.0453 26.037V30.3332H33.3081V28.5893C33.3081 27.971 33.4429 27.6054 33.6671 27.3404C33.8997 27.0656 34.1041 26.9043 34.7285 26.896L35.2021 26.9025L35.2085 28.8673C35.2095 29.1679 35.2245 29.4215 35.2919 29.6375C35.4469 30.1338 35.8239 30.4058 36.5531 30.4058C36.8863 30.4058 37.2111 30.3612 37.5191 30.2477L37.3677 29.3759C37.2231 29.4313 37.0507 29.4663 36.9193 29.4675C36.5489 29.4709 36.4635 29.3088 36.4647 28.9211V26.9025H37.3739L37.3771 26.0368H36.4647L36.4617 24.8205L35.4421 24.8175L35.2241 26.0368H34.6307C34.4411 26.0368 34.2953 26.0384 34.1517 26.0748C33.5437 26.2282 33.2941 26.6757 33.1407 26.9561L32.7841 26.0368L32.0453 26.037ZM39.7465 25.9425C39.4542 25.9421 39.1647 25.9995 38.8946 26.1112C38.6244 26.223 38.379 26.387 38.1723 26.5938C37.9656 26.8007 37.8017 27.0463 37.6901 27.3166C37.5784 27.5869 37.5211 27.8767 37.5215 28.1692C37.5215 29.4011 38.5155 30.402 39.7465 30.402C40.9775 30.402 41.9777 29.4011 41.9777 28.169C41.9777 26.9371 40.9777 25.9425 39.7465 25.9425ZM39.7527 27.0245C40.3825 27.0245 40.8903 27.5389 40.8903 28.169C40.8903 28.7995 40.3825 29.3074 39.7527 29.3074C39.1229 29.3074 38.6089 28.7992 38.6089 28.169C38.6096 27.8656 38.7303 27.5748 38.9447 27.3604C39.1592 27.1459 39.4495 27.0251 39.7527 27.0245ZM44.7499 25.9425C44.1723 25.9455 43.6979 26.2238 43.2561 26.6991L43.0123 26.0362H42.2749V30.3332H43.5061V27.381C43.6321 27.2383 43.9167 26.9741 44.2811 26.9745C44.7439 26.9749 44.9119 27.2727 44.9123 27.6062L44.9187 30.3332H46.1749V27.5685C46.1759 26.4933 45.5509 25.9379 44.7499 25.9425ZM46.2891 26.535V26.1243H46.1691V26.039H46.5045V26.1243H46.3815V26.535H46.2891ZM46.5679 26.535V26.039H46.7013L46.7901 26.3675L46.8737 26.0392H46.9999V26.535H46.9297V26.1489L46.8203 26.535H46.7537L46.6537 26.1419V26.535H46.5679ZM20.4499 19.5267V20.0397H20.9625V19.5265L20.4499 19.5267ZM20.4499 20.0397H19.4999V20.5524H20.4499V20.0397ZM19.4999 20.5524H19.0249V21.5532H19.4999V20.5524ZM19.4999 21.5532V22.0411H19.9875V21.5532H19.4999ZM19.9875 21.5532H20.5249V21.0716H19.9873L19.9875 21.5532ZM19.4999 22.0411H19.0249V22.5415H18.5311V22.0411H17.7249V22.3974H17.2873V22.8353H17.7687V23.3233H17.2811L17.2873 22.8353H16.7623V23.6047H16.2749V24.0863H15.9437V24.5742H15.5937C14.8409 25.8095 14.2369 26.9508 13.8873 27.7952C12.9279 26.5168 12.4779 26.0565 11.6689 25.6062C11.3797 25.4453 11.1221 25.3704 10.9375 25.4749C10.7457 25.5834 10.6895 25.926 10.9315 26.194C12.4335 27.8588 12.7037 28.7471 13.2501 30.0156C13.4129 30.3939 13.7201 30.5562 14.0689 30.566C14.2553 30.5712 14.4841 30.5148 14.6375 30.3347C14.7087 30.2512 14.7295 30.1369 14.7875 29.9968C15.2441 28.8952 15.7507 27.7906 16.4815 26.7384L16.4875 26.188H16.8751L16.8689 25.7H17.2875L17.2815 25.1182H17.7689V24.5866H17.2751L17.2813 24.0863H17.7689V24.5866H18.2563V24.08H18.6377V23.4858H19.0813V23.0793H19.4999V22.0411ZM18.5311 22.0411H19.0249V21.5532H18.5311V22.0411ZM18.5311 21.5532V21.084H18.0375V21.5532H18.5311Z" fill="black"/>
<path d="M19.5 20.5548H19.9866V21.0686H19.5V20.5548ZM20.96 20.0411H21.4866V20.5548H20.96V20.0411ZM20.96 19.0013H21.4866V19.5273H20.96V19.0013Z" fill="#FEB511"/>
</g>
<rect x="1" y="1" width="52" height="52" rx="6" stroke="#EAEAEC"/>
<defs>
<clipPath id="clip0_4682_4328">
<rect width="40" height="15.4514" fill="white" transform="translate(7 19)"/>
</clipPath>
</defs>
</svg>
