<svg width="40" height="40" viewBox="0 0 40 40" fill="none" xmlns="http://www.w3.org/2000/svg">
    <g clip-path="url(#a2m3t7wkta)">
        <path fill="#E71D35" d="M0 0h40v40H0z"/>
        <path d="M30.214 28.65c-.427 0-.832-.111-1.214-.336l-8.564-4.923 1.506-.899 7.89 4.383a.743.743 0 0 0 .764 0 .773.773 0 0 0 .382-.674V13.68a.773.773 0 0 0-.382-.675.742.742 0 0 0-.764 0l-7.733 4.316-1.55-.899L29 11.545a2.394 2.394 0 0 1 2.45 0 2.425 2.425 0 0 1 1.214 2.113v12.52c0 .877-.45 1.664-1.214 2.113-.382.247-.81.36-1.236.36z" fill="#fff"/>
        <path d="m21.605 18.428-6.001-3.461-6.002-3.462c-1.191-.674-2.652.18-2.652 1.529V26.88c0 1.371 1.483 2.225 2.652 1.529l6.002-3.462 6.001-3.462a1.754 1.754 0 0 0 0-3.057zm-5.889 2.428H14.21v1.506a.902.902 0 0 1-.9.899.902.902 0 0 1-.898-.899v-1.506h-1.529a.902.902 0 0 1-.899-.9c0-.494.405-.898.9-.898h1.505v-1.506c0-.495.405-.9.9-.9.494 0 .899.405.899.9v1.506h1.505c.495 0 .9.404.9.899a.869.869 0 0 1-.877.899zM26.55 16.786c-.629 0-1.146.517-1.146 1.147s.517 1.146 1.146 1.146c.63 0 1.147-.517 1.147-1.146 0-.63-.517-1.147-1.147-1.147zM24.527 21.102a1.146 1.146 0 1 0 0-2.293 1.146 1.146 0 0 0 0 2.293zM28.551 21.102a1.146 1.146 0 1 0 0-2.293 1.146 1.146 0 0 0 0 2.293zM26.55 23.127a1.146 1.146 0 1 0 0-2.293 1.146 1.146 0 0 0 0 2.293z" fill="#fff"/>
    </g>
    <rect x=".8" y=".8" width="38.4" height="38.4" rx="19.2" stroke="#FDF6EC" stroke-width="1.6" stroke-miterlimit="0" stroke-linejoin="bevel"/>
    <defs>
        <clipPath id="a2m3t7wkta">
            <rect width="40" height="40" rx="20" fill="#fff"/>
        </clipPath>
    </defs>
</svg>
