<svg width="24" height="24" viewBox="0 0 24 24" fill="none" xmlns="http://www.w3.org/2000/svg">
    <path d="M14.998 9.016V5.043c0-.542-.224-1.061-.622-1.445a2.164 2.164 0 0 0-1.5-.598H5.12c-.563 0-1.103.215-1.5.598a2.005 2.005 0 0 0-.622 1.445v13.914c0 .542.223 1.061.621 1.445.398.383.938.598 1.5.598h7.757" stroke="#82838E" stroke-width="2" stroke-linecap="round" stroke-linejoin="round"/>
    <path d="M15.338 21a5.664 5.664 0 1 0 0-11.327 5.664 5.664 0 0 0 0 11.327zM15.339 15.336V12.3M15.339 15.336l1.373 1.384" stroke="#82838E" stroke-width="2" stroke-linecap="round" stroke-linejoin="round"/>
</svg>
