<svg width="32" height="32" viewBox="0 0 32 32" fill="none" xmlns="http://www.w3.org/2000/svg">
    <path fill="#fff" d="M0 0h32v32H0z"/>
    <path fill-rule="evenodd" clip-rule="evenodd" d="M10.79 9C9.709 9 9 9.71 9 10.644c0 .914.688 1.645 1.75 1.645h.02c1.103 0 1.79-.731 1.79-1.645C12.539 9.711 11.873 9 10.79 9zm12.968 8.647v5.458h-3.164v-5.092c0-1.279-.457-2.152-1.603-2.152-.874 0-1.393.588-1.623 1.157-.083.204-.104.486-.104.771v5.316h-3.165s.042-8.625 0-9.517h3.165v1.348l-.01.015a.166.166 0 0 0-.011.017h.02v-.032c.421-.647 1.171-1.572 2.853-1.572 2.082 0 3.642 1.36 3.642 4.283zm-11.407 5.458H9.187v-9.517h3.164v9.517z" fill="#2F3044"/>
</svg>
