<svg width="32" height="32" viewBox="0 0 32 32" fill="none" xmlns="http://www.w3.org/2000/svg">
    <path opacity=".01" fill="#D8D8D8" d="M0 0h32v32H0z"/>
    <path d="M18.5 16a2.5 2.5 0 1 1-2.5-2.5 2.508 2.508 0 0 1 2.5 2.5zm5.313-3.438v6.876a4.375 4.375 0 0 1-4.375 4.375h-6.875a4.375 4.375 0 0 1-4.376-4.375v-6.875a4.375 4.375 0 0 1 4.376-4.376h6.874a4.375 4.375 0 0 1 4.375 4.376zM19.75 16a3.75 3.75 0 1 0-7.5 0 3.75 3.75 0 0 0 7.5 0zM21 11.937a.937.937 0 1 0-1.875 0 .937.937 0 0 0 1.875 0z" fill="#2F3043"/>
</svg>
