<svg width="62" height="59" viewBox="0 0 62 59" fill="none" xmlns="http://www.w3.org/2000/svg">
    <path d="M42.558 21.218c0 12.076-10.108 21.745-22.188 21.197a20.94 20.94 0 0 1-8.1-2.009L2.171 42.402a1.817 1.817 0 0 1-2.137-2.14l1.995-9.975A20.991 20.991 0 0 1 0 21.218C0 9.508 9.584 0 21.34 0 33.04 0 42.558 9.518 42.558 21.218z" fill="url(#mv0f4sflra)"/>
    <path d="M61.826 55.945c.257 1.289-.894 2.397-2.136 2.14l-4.913-.97c-3.367-.666-6.823-.03-10.193.62a21.381 21.381 0 0 1-4.063.386c-11.7 0-21.218-9.518-21.218-21.219 0-11.702 9.518-21.218 21.218-21.218 11.768 0 21.34 9.518 21.34 21.218 0 1.374-.127 2.724-.381 4.043-.65 3.381-1.284 6.85-.609 10.226l.955 4.774z" fill="url(#2hlwdqu9db)"/>
    <path d="M42.954 32.318c0 1.43-1.344 2.344-4.788 2.487l-.143.143.629 4.43h2.858l.3-1.672c2.916-.514 5.274-1.944 5.274-5.445 0-3.63-2.672-5.717-6.617-5.717a8.576 8.576 0 0 0-6.689 2.958l2.516 2.759a5.63 5.63 0 0 1 4.102-1.887c1.629 0 2.558.715 2.558 1.944zM37.751 41.545h4.431v4.373h-4.431z" fill="#fff"/>
    <defs>
        <linearGradient id="mv0f4sflra" x1="21.279" y1="0" x2="21.279" y2="42.437" gradientUnits="userSpaceOnUse">
            <stop stop-color="#2A3B63"/>
            <stop offset="1" stop-color="#161F33"/>
        </linearGradient>
        <linearGradient id="2hlwdqu9db" x1="44.885" y1="14.995" x2="41.905" y2="57.965" gradientUnits="userSpaceOnUse">
            <stop offset=".01" stop-color="#F1525F"/>
            <stop offset="1" stop-color="#EE2737"/>
        </linearGradient>
    </defs>
</svg>
