<svg width="54" height="51" viewBox="0 0 54 51" fill="none" xmlns="http://www.w3.org/2000/svg">
    <path d="M37.019 18.45c0 10.501-8.793 18.909-19.3 18.433a18.218 18.218 0 0 1-7.047-1.747L1.89 36.87a1.58 1.58 0 0 1-1.858-1.86l1.735-8.675A18.249 18.249 0 0 1 0 18.451C0 8.267 8.336 0 18.562 0 28.74 0 37.019 8.276 37.019 18.45z" fill="url(#up4594df9a)"/>
    <path d="M53.968 48.506c.224 1.12-.778 2.084-1.858 1.86l-8.783-1.735a18.259 18.259 0 0 1-7.89 1.766c-10.177 0-18.456-8.276-18.456-18.45 0-10.176 8.278-18.451 18.456-18.451C45.673 13.495 54 21.771 54 31.945c0 2.765-.594 5.415-1.766 7.886l1.735 8.674z" fill="url(#o1gbh1ybnb)"/>
    <path d="M29.25 29.923a1.97 1.97 0 0 0-1.967 1.967v6.294a1.97 1.97 0 0 0 1.968 1.968h2.36c.444 0 .852-.15 1.181-.399v-9.83h-3.541zM46.173 32.874c0-.473-.188-.914-.513-1.239.368-.402.555-.94.504-1.502-.092-1-.993-1.784-2.052-1.784H39.25c.24-.73.627-2.07.627-3.147 0-1.706-1.451-3.147-2.362-3.147-.817 0-1.401.46-1.426.48a.395.395 0 0 0-.148.307v2.668l-2.266 4.909-.095.048V38.9c.64.302 1.452.465 1.968.465h7.224c.857 0 1.607-.578 1.784-1.375a1.77 1.77 0 0 0-.143-1.182 1.762 1.762 0 0 0 .788-2.36c.581-.293.972-.892.972-1.574z" fill="#fff"/>
    <defs>
        <linearGradient id="up4594df9a" x1=".787" y1="36.902" x2="37.019" y2="36.902" gradientUnits="userSpaceOnUse">
            <stop stop-color="#FFFBF0"/>
            <stop offset=".354" stop-color="#FFF2F1"/>
        </linearGradient>
        <linearGradient id="o1gbh1ybnb" x1="39.232" y1="12.897" x2="36.642" y2="50.262" gradientUnits="userSpaceOnUse">
            <stop offset=".01" stop-color="#F1525F"/>
            <stop offset="1" stop-color="#EE2737"/>
        </linearGradient>
    </defs>
</svg>
