<svg width="52" height="52" viewBox="0 0 52 52" fill="none" xmlns="http://www.w3.org/2000/svg">
<g clip-path="url(#clip0_240_18170)">
<mask id="mask0_240_18170" style="mask-type:luminance" maskUnits="userSpaceOnUse" x="0" y="0" width="52" height="52">
<path d="M42.25 0H9.75C4.36522 0 0 4.36522 0 9.75V42.25C0 47.6348 4.36522 52 9.75 52H42.25C47.6348 52 52 47.6348 52 42.25V9.75C52 4.36522 47.6348 0 42.25 0Z" fill="white"/>
</mask>
<g mask="url(#mask0_240_18170)">
<path d="M42.25 0H9.75C4.36522 0 0 4.36522 0 9.75V42.25C0 47.6348 4.36522 52 9.75 52H42.25C47.6348 52 52 47.6348 52 42.25V9.75C52 4.36522 47.6348 0 42.25 0Z" fill="url(#paint0_linear_240_18170)"/>
<path d="M8.15869 32.8368V27.0742H9.75932V27.8857C10.1097 27.2834 10.6551 26.9828 11.3945 26.9828C12.2862 26.9828 12.8732 27.3332 13.1556 28.0339C13.3211 27.716 13.5781 27.455 13.8929 27.2854C14.2535 27.0803 14.6617 26.9757 15.0761 26.9828C15.6936 26.9828 16.1923 27.1828 16.5742 27.583C16.954 27.9811 17.1602 28.5133 17.146 29.0638V32.8368H15.5565V29.5665C15.5728 29.2435 15.4732 28.9257 15.2762 28.6687C15.0964 28.4473 14.8232 28.3224 14.5388 28.3315C14.2382 28.3193 13.9488 28.4432 13.7497 28.6687C13.5425 28.9206 13.4359 29.2405 13.4521 29.5665V32.8368H11.8515V29.5665C11.8678 29.2446 11.7713 28.9267 11.5773 28.6687C11.4006 28.4473 11.1294 28.3214 10.846 28.3315C10.5454 28.3193 10.256 28.4432 10.0569 28.6687C9.84971 28.9206 9.74307 29.2405 9.75932 29.5665V32.8368H8.15869Z" fill="white"/>
<path d="M23.2388 32.088C22.667 32.6486 21.9388 32.9279 21.0542 32.9279C20.1696 32.9279 19.4424 32.6476 18.8706 32.088C18.2988 31.5273 18.0134 30.8164 18.0134 29.9552C18.0134 29.0939 18.2988 28.383 18.8706 27.8223C19.4424 27.2627 20.1706 26.9824 21.0542 26.9824C21.9378 26.9824 22.666 27.2627 23.2388 27.8223C23.8106 28.383 24.096 29.0939 24.096 29.9552C24.096 30.8164 23.8106 31.5273 23.2388 32.088Z" fill="white"/>
<path d="M26.2918 32.8369L24.1885 27.0742H25.8114L27.0241 30.8016L28.2246 27.0742H29.8597L27.7554 32.8369H26.2918Z" fill="white"/>
<path d="M37.1304 30.8823H38.6853C38.5828 31.4795 38.2506 32.0137 37.7591 32.3692C37.231 32.7511 36.5921 32.9481 35.9411 32.9298C35.0189 32.9298 34.2948 32.6302 33.7687 32.032C33.2528 31.4602 32.9714 30.7158 32.9796 29.9459C32.9653 29.1863 33.2274 28.4459 33.7169 27.8649C34.2085 27.2779 34.9113 26.9844 35.8264 26.9844C36.7638 26.9844 37.4727 27.2667 37.9531 27.8304C38.4264 28.3758 38.6823 29.0755 38.6731 29.7966C38.6731 29.9723 38.666 30.144 38.6508 30.3105H34.5121C34.5507 30.6762 34.7142 31.0174 34.9753 31.2764C35.2393 31.5151 35.5856 31.64 35.9411 31.6258C36.6043 31.6258 37.0014 31.378 37.1304 30.8823ZM35.8264 28.1493C35.0951 28.1493 34.6645 28.5342 34.5345 29.3041H37.0837C37.0715 28.9912 36.9405 28.6957 36.7181 28.4753C36.4774 28.2509 36.1554 28.133 35.8264 28.1493Z" fill="white"/>
<path d="M41.601 32.928C40.8921 32.928 40.3183 32.7431 39.8805 32.3734C39.4428 32.0048 39.1859 31.4655 39.1777 30.8927H40.5498C40.5702 31.1323 40.688 31.3538 40.8759 31.5041C41.0851 31.6595 41.342 31.7387 41.602 31.7265C41.8133 31.7356 42.0235 31.6798 42.2023 31.566C42.3445 31.4827 42.4338 31.3314 42.4369 31.1659C42.4399 30.9577 42.312 30.7698 42.117 30.6966C41.8691 30.588 41.6071 30.5169 41.339 30.4854C41.0323 30.4427 40.7286 30.3798 40.43 30.2965C40.1253 30.2102 39.8552 30.0304 39.6581 29.7816C39.4448 29.5226 39.3382 29.1681 39.3382 28.7182C39.3291 28.2348 39.5444 27.7747 39.9212 27.472C40.3102 27.144 40.8017 26.9805 41.3959 26.9805C42.0895 26.9805 42.6522 27.1521 43.0828 27.4954C43.5053 27.8224 43.7592 28.3221 43.7745 28.8563H42.3912C42.3678 28.6329 42.249 28.4308 42.0652 28.3018C41.8844 28.1698 41.666 28.0997 41.4426 28.1017C41.2486 28.0926 41.0566 28.1444 40.8941 28.25C40.7601 28.3434 40.6829 28.4978 40.688 28.6613C40.6829 28.8685 40.8159 29.0534 41.014 29.1133C41.2669 29.2098 41.533 29.2687 41.8031 29.29C42.1149 29.3215 42.4247 29.3743 42.7294 29.4505C43.0442 29.5307 43.3225 29.7166 43.5185 29.9766C43.7359 30.2508 43.8445 30.6286 43.8445 31.109C43.8618 31.6209 43.6343 32.1114 43.2321 32.4293C42.8238 32.7604 42.2815 32.927 41.603 32.927" fill="white"/>
<path d="M20.3867 28.173C20.0505 27.9801 19.7783 28.1385 19.7783 28.5255V31.3855C19.7783 31.7734 20.0505 31.9309 20.3867 31.7389L22.8861 30.3059C23.2223 30.1129 23.2223 29.8001 22.8861 29.6071L20.3867 28.1741V28.173Z" fill="#FFC600"/>
<path d="M31.3058 24.5703H31.317C31.7811 24.5703 32.1579 24.9471 32.1579 25.4113C32.1579 25.8754 31.7811 26.2522 31.317 26.2522H31.3058C30.8416 26.2522 30.4648 25.8754 30.4648 25.4113C30.4648 24.9471 30.8416 24.5703 31.3058 24.5703ZM30.5105 27.0748H32.1112V32.8375H30.5105V27.0748Z" fill="white"/>
<path d="M23.0458 42.7743H21.3192L20.7017 42.0999C20.1076 42.6026 19.3529 42.8738 18.575 42.8657C17.7747 42.8657 17.1247 42.6483 16.626 42.2136C16.1273 41.7789 15.8765 41.1919 15.8765 40.4525C15.8765 39.5385 16.3609 38.8326 17.3288 38.337C16.8565 37.7429 16.6199 37.2208 16.6199 36.7709C16.6199 36.1382 16.82 35.6314 17.2201 35.2505C17.6203 34.8696 18.1484 34.6787 18.8035 34.6787C19.4515 34.6787 19.9755 34.8696 20.3757 35.2505C20.7758 35.6314 20.9759 36.1311 20.9759 36.7486C20.9759 37.2746 20.8408 37.6961 20.5697 38.012C20.2589 38.3583 19.879 38.6366 19.4545 38.8296L20.6672 40.156L21.3415 39.3557C21.5193 39.1018 21.7569 38.8956 22.0342 38.7554C22.3084 38.6447 22.6019 38.5919 22.8975 38.6011V40.0757C22.539 40.0757 22.1815 40.3124 21.8229 40.7846L21.5599 41.1391L23.0458 42.7743ZM18.5862 41.4702C19.0168 41.4671 19.4352 41.3311 19.7866 41.0812L18.2439 39.3892C18.0072 39.506 17.794 39.6644 17.6152 39.8584C17.47 40.027 17.3928 40.2423 17.3979 40.4647C17.3847 40.7461 17.5004 41.0172 17.7127 41.2021C17.9229 41.3808 18.2144 41.4702 18.5872 41.4702M18.0042 36.7029C18.0042 36.9771 18.1829 37.3396 18.5415 37.7896C18.8319 37.6677 19.1011 37.5011 19.3418 37.298C19.5205 37.1386 19.6211 36.909 19.616 36.6693C19.6262 36.4571 19.5449 36.2509 19.3926 36.1036C19.2321 35.9584 19.0198 35.8822 18.8035 35.8924C18.5862 35.8822 18.3749 35.9625 18.2205 36.1148C18.0722 36.2743 17.993 36.4865 18.0032 36.7039" fill="white"/>
<path d="M26.957 35.3086H28.5464V37.0118H30.0902V38.3382H28.5464V40.6132C28.5464 41.1616 28.8166 41.4359 29.3579 41.4369H30.0902V42.7745H29.1406C28.4692 42.7745 27.9381 42.5916 27.546 42.226C27.154 41.8604 26.958 41.3455 26.957 40.6823V38.3382H25.8479V37.0118H26.957V35.3086Z" fill="white"/>
<path d="M32.5348 42.7744L30.4314 37.0117H32.0544L33.266 40.7391L34.4665 37.0117H36.1016L33.9973 42.7744H32.5337H32.5348Z" fill="white"/>
<path d="M33.2599 18.048H30.0871V9.13281H33.2599V18.048ZM25.8794 9.13281L23.8258 17.4406L21.7722 9.13281H18.5994L20.8033 18.048H26.8473L29.0512 9.13281H25.8783H25.8794Z" fill="white"/>
<path d="M33.4001 20.8115C33.4001 21.7652 32.6273 22.5381 31.6736 22.5381C30.7199 22.5381 29.947 21.7652 29.947 20.8115C29.947 19.8579 30.7199 19.085 31.6736 19.085C32.6273 19.085 33.4001 19.8579 33.4001 20.8115Z" fill="#FFC600"/>
</g>
</g>
<defs>
<linearGradient id="paint0_linear_240_18170" x1="25.7806" y1="0.0690625" x2="25.7806" y2="52.0691" gradientUnits="userSpaceOnUse">
<stop stop-color="#EE2938"/>
<stop offset="1" stop-color="#DB1F1F"/>
</linearGradient>
<clipPath id="clip0_240_18170">
<rect width="52" height="52" fill="white"/>
</clipPath>
</defs>
</svg>
