<svg width="32" height="32" viewBox="0 0 32 32" fill="none" xmlns="http://www.w3.org/2000/svg">
    <path opacity=".01" fill="#D8D8D8" d="M0 0h32v32H0z"/>
    <rect x="2.667" y="2.667" width="26.667" height="26.667" rx="4" fill="#fff"/>
    <ellipse cx="16" cy="16" rx="12" ry="8" fill="#2F3044"/>
    <path d="M14.338 18.498 18.677 16l-4.337-2.498v4.996z" fill="#fff"/>
    <path fill-rule="evenodd" clip-rule="evenodd" d="M2.667 16c0-7.363 5.971-13.333 13.334-13.333 7.362 0 13.333 5.97 13.333 13.333s-5.97 13.333-13.333 13.333S2.667 23.363 2.667 16zm21.32 4.022c.343-1.304.343-4.008.343-4.008s.014-2.718-.343-4.022a2.088 2.088 0 0 0-1.469-1.468c-1.303-.357-6.52-.357-6.52-.357s-5.215 0-6.519.343a2.13 2.13 0 0 0-1.468 1.482C7.667 13.296 7.667 16 7.667 16s0 2.718.344 4.008a2.088 2.088 0 0 0 1.468 1.469c1.318.356 6.52.356 6.52.356s5.216 0 6.52-.343a2.088 2.088 0 0 0 1.468-1.468z" fill="#fff"/>
</svg>
